<mxfile host="app.diagrams.net" modified="2021-07-26T07:31:25.575Z" agent="5.0 (Macintosh; Intel Mac OS X 10_15_7) AppleWebKit/537.36 (KHTML, like Gecko) Chrome/92.0.4515.107 Safari/537.36" etag="xmY3UeMrl6aQ1fDFSdRL" version="14.8.0" type="github">
  <diagram id="C5RBs43oDa-KdzZeNtuy" name="Page-1">
    <mxGraphModel dx="2066" dy="1958" grid="1" gridSize="10" guides="1" tooltips="1" connect="1" arrows="1" fold="1" page="1" pageScale="1" pageWidth="1169" pageHeight="827" math="0" shadow="0">
      <root>
        <mxCell id="WIyWlLk6GJQsqaUBKTNV-0" />
        <mxCell id="WIyWlLk6GJQsqaUBKTNV-1" parent="WIyWlLk6GJQsqaUBKTNV-0" />
        <mxCell id="CvALPrKDwg2GNkAODaw3-17" style="edgeStyle=orthogonalEdgeStyle;rounded=0;orthogonalLoop=1;jettySize=auto;html=1;" edge="1" parent="WIyWlLk6GJQsqaUBKTNV-1" source="CvALPrKDwg2GNkAODaw3-0" target="CvALPrKDwg2GNkAODaw3-18">
          <mxGeometry relative="1" as="geometry">
            <mxPoint x="662.5" y="310" as="targetPoint" />
          </mxGeometry>
        </mxCell>
        <mxCell id="CvALPrKDwg2GNkAODaw3-0" value="KitchenHelper&lt;br&gt;App" style="ellipse;shape=cloud;whiteSpace=wrap;html=1;fillColor=#f5f5f5;strokeColor=#666666;fontColor=#333333;" vertex="1" parent="WIyWlLk6GJQsqaUBKTNV-1">
          <mxGeometry x="387.5" y="334" width="120" height="80" as="geometry" />
        </mxCell>
        <mxCell id="CvALPrKDwg2GNkAODaw3-16" style="edgeStyle=orthogonalEdgeStyle;rounded=0;orthogonalLoop=1;jettySize=auto;html=1;entryX=0.533;entryY=0.075;entryDx=0;entryDy=0;entryPerimeter=0;" edge="1" parent="WIyWlLk6GJQsqaUBKTNV-1" source="CvALPrKDwg2GNkAODaw3-2" target="CvALPrKDwg2GNkAODaw3-0">
          <mxGeometry relative="1" as="geometry" />
        </mxCell>
        <mxCell id="CvALPrKDwg2GNkAODaw3-68" style="edgeStyle=orthogonalEdgeStyle;rounded=0;orthogonalLoop=1;jettySize=auto;html=1;" edge="1" parent="WIyWlLk6GJQsqaUBKTNV-1" source="CvALPrKDwg2GNkAODaw3-2">
          <mxGeometry relative="1" as="geometry">
            <mxPoint x="452" y="50" as="targetPoint" />
          </mxGeometry>
        </mxCell>
        <mxCell id="CvALPrKDwg2GNkAODaw3-2" value="IngredientsRepository" style="swimlane;fillColor=#dae8fc;strokeColor=#6c8ebf;" vertex="1" parent="WIyWlLk6GJQsqaUBKTNV-1">
          <mxGeometry x="349.5" y="110" width="205" height="200" as="geometry" />
        </mxCell>
        <mxCell id="CvALPrKDwg2GNkAODaw3-3" value="Database" style="text;html=1;align=center;verticalAlign=middle;resizable=0;points=[];autosize=1;strokeColor=none;" vertex="1" parent="CvALPrKDwg2GNkAODaw3-2">
          <mxGeometry x="65" y="70" width="70" height="20" as="geometry" />
        </mxCell>
        <mxCell id="CvALPrKDwg2GNkAODaw3-15" value="&lt;b&gt;ALERT&lt;/b&gt;&lt;br&gt;ingredient below % threshold" style="text;html=1;align=center;verticalAlign=middle;resizable=0;points=[];autosize=1;strokeColor=none;" vertex="1" parent="CvALPrKDwg2GNkAODaw3-2">
          <mxGeometry x="15" y="160" width="170" height="30" as="geometry" />
        </mxCell>
        <mxCell id="CvALPrKDwg2GNkAODaw3-21" value="Repo of fresh and dry ingredients" style="text;html=1;align=center;verticalAlign=middle;resizable=0;points=[];autosize=1;strokeColor=none;" vertex="1" parent="CvALPrKDwg2GNkAODaw3-2">
          <mxGeometry x="5" y="20" width="190" height="20" as="geometry" />
        </mxCell>
        <mxCell id="CvALPrKDwg2GNkAODaw3-22" value="Can be added to manually or barcode" style="text;html=1;align=center;verticalAlign=middle;resizable=0;points=[];autosize=1;strokeColor=none;" vertex="1" parent="CvALPrKDwg2GNkAODaw3-2">
          <mxGeometry x="-7.5" y="40" width="220" height="20" as="geometry" />
        </mxCell>
        <mxCell id="CvALPrKDwg2GNkAODaw3-6" style="edgeStyle=orthogonalEdgeStyle;rounded=0;orthogonalLoop=1;jettySize=auto;html=1;" edge="1" parent="WIyWlLk6GJQsqaUBKTNV-1">
          <mxGeometry relative="1" as="geometry">
            <mxPoint x="472.5" y="230" as="targetPoint" />
            <mxPoint x="447.5" y="200" as="sourcePoint" />
          </mxGeometry>
        </mxCell>
        <mxCell id="CvALPrKDwg2GNkAODaw3-7" style="edgeStyle=orthogonalEdgeStyle;rounded=0;orthogonalLoop=1;jettySize=auto;html=1;" edge="1" parent="WIyWlLk6GJQsqaUBKTNV-1">
          <mxGeometry relative="1" as="geometry">
            <mxPoint x="422.5" y="230" as="targetPoint" />
            <mxPoint x="447.5" y="200" as="sourcePoint" />
          </mxGeometry>
        </mxCell>
        <mxCell id="CvALPrKDwg2GNkAODaw3-10" style="edgeStyle=orthogonalEdgeStyle;rounded=0;orthogonalLoop=1;jettySize=auto;html=1;" edge="1" parent="WIyWlLk6GJQsqaUBKTNV-1" source="CvALPrKDwg2GNkAODaw3-8">
          <mxGeometry relative="1" as="geometry">
            <mxPoint x="442.5" y="270" as="targetPoint" />
          </mxGeometry>
        </mxCell>
        <mxCell id="CvALPrKDwg2GNkAODaw3-8" value="Fridge" style="text;html=1;align=center;verticalAlign=middle;resizable=0;points=[];autosize=1;strokeColor=none;" vertex="1" parent="WIyWlLk6GJQsqaUBKTNV-1">
          <mxGeometry x="372.5" y="230" width="50" height="20" as="geometry" />
        </mxCell>
        <mxCell id="CvALPrKDwg2GNkAODaw3-9" value="Cupboard" style="text;html=1;align=center;verticalAlign=middle;resizable=0;points=[];autosize=1;strokeColor=none;" vertex="1" parent="WIyWlLk6GJQsqaUBKTNV-1">
          <mxGeometry x="447.5" y="230" width="70" height="20" as="geometry" />
        </mxCell>
        <mxCell id="CvALPrKDwg2GNkAODaw3-13" value="" style="endArrow=none;html=1;" edge="1" parent="WIyWlLk6GJQsqaUBKTNV-1">
          <mxGeometry width="50" height="50" relative="1" as="geometry">
            <mxPoint x="437.5" y="239.5" as="sourcePoint" />
            <mxPoint x="457.5" y="239.5" as="targetPoint" />
          </mxGeometry>
        </mxCell>
        <mxCell id="CvALPrKDwg2GNkAODaw3-61" style="edgeStyle=orthogonalEdgeStyle;rounded=0;orthogonalLoop=1;jettySize=auto;html=1;" edge="1" parent="WIyWlLk6GJQsqaUBKTNV-1" source="CvALPrKDwg2GNkAODaw3-18">
          <mxGeometry relative="1" as="geometry">
            <mxPoint x="787.5" y="70" as="targetPoint" />
          </mxGeometry>
        </mxCell>
        <mxCell id="CvALPrKDwg2GNkAODaw3-18" value="MyRecipeBook" style="swimlane;fillColor=#fff2cc;strokeColor=#d6b656;" vertex="1" parent="WIyWlLk6GJQsqaUBKTNV-1">
          <mxGeometry x="682.5" y="110" width="210" height="200" as="geometry" />
        </mxCell>
        <mxCell id="CvALPrKDwg2GNkAODaw3-23" value="Recipe is selectable =&amp;gt; ping repo" style="text;html=1;align=center;verticalAlign=middle;resizable=0;points=[];autosize=1;strokeColor=none;" vertex="1" parent="CvALPrKDwg2GNkAODaw3-18">
          <mxGeometry x="5" y="50" width="190" height="20" as="geometry" />
        </mxCell>
        <mxCell id="CvALPrKDwg2GNkAODaw3-20" value="Enter recipes to your recipe book" style="text;html=1;align=center;verticalAlign=middle;resizable=0;points=[];autosize=1;strokeColor=none;" vertex="1" parent="CvALPrKDwg2GNkAODaw3-18">
          <mxGeometry x="-5" y="30" width="190" height="20" as="geometry" />
        </mxCell>
        <mxCell id="CvALPrKDwg2GNkAODaw3-32" value="&lt;b&gt;Live Cook&lt;/b&gt;&amp;nbsp;mode - cook + take notes&lt;br&gt;&amp;nbsp;in real time" style="text;html=1;align=center;verticalAlign=middle;resizable=0;points=[];autosize=1;strokeColor=none;" vertex="1" parent="CvALPrKDwg2GNkAODaw3-18">
          <mxGeometry x="-1" y="71" width="210" height="30" as="geometry" />
        </mxCell>
        <mxCell id="CvALPrKDwg2GNkAODaw3-37" style="edgeStyle=orthogonalEdgeStyle;rounded=0;orthogonalLoop=1;jettySize=auto;html=1;" edge="1" parent="WIyWlLk6GJQsqaUBKTNV-1" source="CvALPrKDwg2GNkAODaw3-33">
          <mxGeometry relative="1" as="geometry">
            <mxPoint x="787.5" y="370" as="targetPoint" />
          </mxGeometry>
        </mxCell>
        <mxCell id="CvALPrKDwg2GNkAODaw3-33" value="LookupRecipe" style="swimlane;fillColor=#fff2cc;strokeColor=#d6b656;" vertex="1" parent="WIyWlLk6GJQsqaUBKTNV-1">
          <mxGeometry x="682.5" y="430" width="210" height="200" as="geometry" />
        </mxCell>
        <mxCell id="CvALPrKDwg2GNkAODaw3-35" value="Import recipes to your recipe book&lt;br&gt;&amp;nbsp;from the Web" style="text;html=1;align=center;verticalAlign=middle;resizable=0;points=[];autosize=1;strokeColor=none;" vertex="1" parent="CvALPrKDwg2GNkAODaw3-33">
          <mxGeometry x="5" y="30" width="200" height="30" as="geometry" />
        </mxCell>
        <mxCell id="CvALPrKDwg2GNkAODaw3-38" value="Filters recipe and extracts:&lt;br&gt;- servings&lt;br&gt;- name&lt;br&gt;- image&lt;br&gt;- ingredients&lt;br&gt;- units&lt;br&gt;- recipe steps" style="text;html=1;align=center;verticalAlign=middle;resizable=0;points=[];autosize=1;strokeColor=none;" vertex="1" parent="CvALPrKDwg2GNkAODaw3-33">
          <mxGeometry x="20" y="70" width="160" height="100" as="geometry" />
        </mxCell>
        <mxCell id="CvALPrKDwg2GNkAODaw3-65" value="Is there an external API for this?" style="text;html=1;align=center;verticalAlign=middle;resizable=0;points=[];autosize=1;strokeColor=none;" vertex="1" parent="CvALPrKDwg2GNkAODaw3-33">
          <mxGeometry y="180" width="190" height="20" as="geometry" />
        </mxCell>
        <mxCell id="CvALPrKDwg2GNkAODaw3-44" style="edgeStyle=orthogonalEdgeStyle;rounded=0;orthogonalLoop=1;jettySize=auto;html=1;" edge="1" parent="WIyWlLk6GJQsqaUBKTNV-1" source="CvALPrKDwg2GNkAODaw3-39">
          <mxGeometry relative="1" as="geometry">
            <mxPoint x="790" y="374" as="targetPoint" />
          </mxGeometry>
        </mxCell>
        <mxCell id="CvALPrKDwg2GNkAODaw3-39" value="Nutrition" style="swimlane;fillColor=#d5e8d4;strokeColor=#82b366;" vertex="1" parent="WIyWlLk6GJQsqaUBKTNV-1">
          <mxGeometry x="940" y="309" width="210" height="130" as="geometry" />
        </mxCell>
        <mxCell id="CvALPrKDwg2GNkAODaw3-40" value="Calculates nutrition of a recipe" style="text;html=1;align=center;verticalAlign=middle;resizable=0;points=[];autosize=1;strokeColor=none;" vertex="1" parent="CvALPrKDwg2GNkAODaw3-39">
          <mxGeometry x="10" y="50" width="180" height="20" as="geometry" />
        </mxCell>
        <mxCell id="CvALPrKDwg2GNkAODaw3-41" value="Repo of nutritional info per ingredient" style="text;html=1;align=center;verticalAlign=middle;resizable=0;points=[];autosize=1;strokeColor=none;" vertex="1" parent="CvALPrKDwg2GNkAODaw3-39">
          <mxGeometry y="30" width="210" height="20" as="geometry" />
        </mxCell>
        <mxCell id="CvALPrKDwg2GNkAODaw3-54" style="edgeStyle=orthogonalEdgeStyle;rounded=0;orthogonalLoop=1;jettySize=auto;html=1;" edge="1" parent="WIyWlLk6GJQsqaUBKTNV-1" source="CvALPrKDwg2GNkAODaw3-45">
          <mxGeometry relative="1" as="geometry">
            <mxPoint x="350" y="240" as="targetPoint" />
          </mxGeometry>
        </mxCell>
        <mxCell id="CvALPrKDwg2GNkAODaw3-55" style="edgeStyle=orthogonalEdgeStyle;rounded=0;orthogonalLoop=1;jettySize=auto;html=1;" edge="1" parent="WIyWlLk6GJQsqaUBKTNV-1" source="CvALPrKDwg2GNkAODaw3-45">
          <mxGeometry relative="1" as="geometry">
            <mxPoint x="380" y="370" as="targetPoint" />
          </mxGeometry>
        </mxCell>
        <mxCell id="CvALPrKDwg2GNkAODaw3-45" value="WhatCanICook?" style="swimlane;fillColor=#e1d5e7;strokeColor=#9673a6;" vertex="1" parent="WIyWlLk6GJQsqaUBKTNV-1">
          <mxGeometry x="100" y="240" width="210" height="130" as="geometry" />
        </mxCell>
        <mxCell id="CvALPrKDwg2GNkAODaw3-46" value="suggests meals cookable with&lt;br&gt;ingredients to hand" style="text;html=1;align=center;verticalAlign=middle;resizable=0;points=[];autosize=1;strokeColor=none;" vertex="1" parent="CvALPrKDwg2GNkAODaw3-45">
          <mxGeometry x="20" y="50" width="170" height="30" as="geometry" />
        </mxCell>
        <mxCell id="CvALPrKDwg2GNkAODaw3-47" value="compares iRepo with recipes" style="text;html=1;align=center;verticalAlign=middle;resizable=0;points=[];autosize=1;strokeColor=none;" vertex="1" parent="CvALPrKDwg2GNkAODaw3-45">
          <mxGeometry x="20" y="30" width="170" height="20" as="geometry" />
        </mxCell>
        <mxCell id="CvALPrKDwg2GNkAODaw3-48" value="LastChance!" style="swimlane;fillColor=#f8cecc;strokeColor=#b85450;" vertex="1" parent="WIyWlLk6GJQsqaUBKTNV-1">
          <mxGeometry x="342.5" y="-50" width="210" height="100" as="geometry" />
        </mxCell>
        <mxCell id="CvALPrKDwg2GNkAODaw3-50" value="warns 3, 2, 1 days before&amp;nbsp;&lt;br&gt;expiry date of fresh produce" style="text;html=1;align=center;verticalAlign=middle;resizable=0;points=[];autosize=1;strokeColor=none;" vertex="1" parent="CvALPrKDwg2GNkAODaw3-48">
          <mxGeometry x="25" y="30" width="160" height="30" as="geometry" />
        </mxCell>
        <mxCell id="CvALPrKDwg2GNkAODaw3-51" value="calls WCIC &amp;amp; RB for suggestions&lt;br&gt;using this ingredient as priority" style="text;html=1;align=center;verticalAlign=middle;resizable=0;points=[];autosize=1;strokeColor=none;" vertex="1" parent="CvALPrKDwg2GNkAODaw3-48">
          <mxGeometry x="15" y="70" width="190" height="30" as="geometry" />
        </mxCell>
        <mxCell id="CvALPrKDwg2GNkAODaw3-53" style="edgeStyle=orthogonalEdgeStyle;rounded=0;orthogonalLoop=1;jettySize=auto;html=1;entryX=0.91;entryY=-0.031;entryDx=0;entryDy=0;entryPerimeter=0;exitX=0;exitY=0.5;exitDx=0;exitDy=0;" edge="1" parent="WIyWlLk6GJQsqaUBKTNV-1" source="CvALPrKDwg2GNkAODaw3-48" target="CvALPrKDwg2GNkAODaw3-45">
          <mxGeometry relative="1" as="geometry">
            <mxPoint x="340" y="-5" as="sourcePoint" />
          </mxGeometry>
        </mxCell>
        <mxCell id="CvALPrKDwg2GNkAODaw3-63" style="edgeStyle=orthogonalEdgeStyle;rounded=0;orthogonalLoop=1;jettySize=auto;html=1;entryX=1;entryY=0.5;entryDx=0;entryDy=0;" edge="1" parent="WIyWlLk6GJQsqaUBKTNV-1" source="CvALPrKDwg2GNkAODaw3-57" target="CvALPrKDwg2GNkAODaw3-2">
          <mxGeometry relative="1" as="geometry" />
        </mxCell>
        <mxCell id="CvALPrKDwg2GNkAODaw3-75" style="edgeStyle=orthogonalEdgeStyle;rounded=0;orthogonalLoop=1;jettySize=auto;html=1;exitX=0.5;exitY=0;exitDx=0;exitDy=0;entryX=0.5;entryY=1;entryDx=0;entryDy=0;" edge="1" parent="WIyWlLk6GJQsqaUBKTNV-1" source="CvALPrKDwg2GNkAODaw3-57" target="CvALPrKDwg2GNkAODaw3-70">
          <mxGeometry relative="1" as="geometry" />
        </mxCell>
        <mxCell id="CvALPrKDwg2GNkAODaw3-82" style="edgeStyle=orthogonalEdgeStyle;rounded=0;orthogonalLoop=1;jettySize=auto;html=1;exitX=1;exitY=0.25;exitDx=0;exitDy=0;entryX=0.25;entryY=1;entryDx=0;entryDy=0;" edge="1" parent="WIyWlLk6GJQsqaUBKTNV-1" source="CvALPrKDwg2GNkAODaw3-57" target="CvALPrKDwg2GNkAODaw3-78">
          <mxGeometry relative="1" as="geometry" />
        </mxCell>
        <mxCell id="CvALPrKDwg2GNkAODaw3-57" value="CheckIngredients" style="swimlane;fillColor=#dae8fc;strokeColor=#6c8ebf;" vertex="1" parent="WIyWlLk6GJQsqaUBKTNV-1">
          <mxGeometry x="610" y="-30" width="200" height="100" as="geometry" />
        </mxCell>
        <mxCell id="CvALPrKDwg2GNkAODaw3-28" value="- anything missing?" style="text;html=1;strokeColor=none;fillColor=none;align=center;verticalAlign=middle;whiteSpace=wrap;rounded=0;" vertex="1" parent="CvALPrKDwg2GNkAODaw3-57">
          <mxGeometry x="30" y="24" width="130" height="20" as="geometry" />
        </mxCell>
        <mxCell id="CvALPrKDwg2GNkAODaw3-29" value="- will this recipe make me run out/low?" style="text;html=1;strokeColor=none;fillColor=none;align=center;verticalAlign=middle;whiteSpace=wrap;rounded=0;" vertex="1" parent="CvALPrKDwg2GNkAODaw3-57">
          <mxGeometry x="30" y="50" width="130" height="20" as="geometry" />
        </mxCell>
        <mxCell id="CvALPrKDwg2GNkAODaw3-30" value="- add to shopping list" style="text;html=1;strokeColor=none;fillColor=none;align=center;verticalAlign=middle;whiteSpace=wrap;rounded=0;" vertex="1" parent="CvALPrKDwg2GNkAODaw3-57">
          <mxGeometry x="30" y="74" width="130" height="20" as="geometry" />
        </mxCell>
        <mxCell id="CvALPrKDwg2GNkAODaw3-60" value="&lt;span style=&quot;color: rgba(0 , 0 , 0 , 0) ; font-family: monospace ; font-size: 0px&quot;&gt;%3CmxGraphModel%3E%3Croot%3E%3CmxCell%20id%3D%220%22%2F%3E%3CmxCell%20id%3D%221%22%20parent%3D%220%22%2F%3E%3CmxCell%20id%3D%222%22%20value%3D%22-%20anything%20missing%3F%22%20style%3D%22text%3Bhtml%3D1%3BstrokeColor%3Dnone%3BfillColor%3Dnone%3Balign%3Dcenter%3BverticalAlign%3Dmiddle%3BwhiteSpace%3Dwrap%3Brounded%3D0%3B%22%20vertex%3D%221%22%20parent%3D%221%22%3E%3CmxGeometry%20x%3D%22552.5%22%20y%3D%22180%22%20width%3D%22130%22%20height%3D%2220%22%20as%3D%22geometry%22%2F%3E%3C%2FmxCell%3E%3CmxCell%20id%3D%223%22%20value%3D%22-%20will%20this%20recipe%20make%20me%20run%20out%2Flow%3F%22%20style%3D%22text%3Bhtml%3D1%3BstrokeColor%3Dnone%3BfillColor%3Dnone%3Balign%3Dcenter%3BverticalAlign%3Dmiddle%3BwhiteSpace%3Dwrap%3Brounded%3D0%3B%22%20vertex%3D%221%22%20parent%3D%221%22%3E%3CmxGeometry%20x%3D%22552.5%22%20y%3D%22210%22%20width%3D%22130%22%20height%3D%2220%22%20as%3D%22geometry%22%2F%3E%3C%2FmxCell%3E%3CmxCell%20id%3D%224%22%20value%3D%22-%20add%20to%20shopping%20list%22%20style%3D%22text%3Bhtml%3D1%3BstrokeColor%3Dnone%3BfillColor%3Dnone%3Balign%3Dcenter%3BverticalAlign%3Dmiddle%3BwhiteSpace%3Dwrap%3Brounded%3D0%3B%22%20vertex%3D%221%22%20parent%3D%221%22%3E%3CmxGeometry%20x%3D%22552.5%22%20y%3D%22240%22%20width%3D%22130%22%20height%3D%2220%22%20as%3D%22geometry%22%2F%3E%3C%2FmxCell%3E%3C%2Froot%3E%3C%2FmxGraphModel%3E&lt;/span&gt;" style="text;html=1;align=center;verticalAlign=middle;resizable=0;points=[];autosize=1;strokeColor=none;" vertex="1" parent="WIyWlLk6GJQsqaUBKTNV-1">
          <mxGeometry x="680" y="20" width="20" height="20" as="geometry" />
        </mxCell>
        <mxCell id="CvALPrKDwg2GNkAODaw3-64" style="edgeStyle=orthogonalEdgeStyle;rounded=0;orthogonalLoop=1;jettySize=auto;html=1;entryX=0.5;entryY=0;entryDx=0;entryDy=0;" edge="1" parent="WIyWlLk6GJQsqaUBKTNV-1" source="CvALPrKDwg2GNkAODaw3-51" target="CvALPrKDwg2GNkAODaw3-2">
          <mxGeometry relative="1" as="geometry" />
        </mxCell>
        <mxCell id="CvALPrKDwg2GNkAODaw3-69" value="pings iRepo" style="text;html=1;strokeColor=none;fillColor=none;align=center;verticalAlign=middle;whiteSpace=wrap;rounded=0;" vertex="1" parent="WIyWlLk6GJQsqaUBKTNV-1">
          <mxGeometry x="407.5" y="70" width="40" height="20" as="geometry" />
        </mxCell>
        <mxCell id="CvALPrKDwg2GNkAODaw3-77" style="edgeStyle=orthogonalEdgeStyle;rounded=0;orthogonalLoop=1;jettySize=auto;html=1;entryX=0.46;entryY=-0.01;entryDx=0;entryDy=0;entryPerimeter=0;" edge="1" parent="WIyWlLk6GJQsqaUBKTNV-1" source="CvALPrKDwg2GNkAODaw3-70" target="CvALPrKDwg2GNkAODaw3-48">
          <mxGeometry relative="1" as="geometry">
            <mxPoint x="440" y="-132.5" as="targetPoint" />
            <Array as="points">
              <mxPoint x="625" y="-65" />
              <mxPoint x="439" y="-65" />
            </Array>
          </mxGeometry>
        </mxCell>
        <mxCell id="CvALPrKDwg2GNkAODaw3-70" value="Supermarket Geofencing" style="swimlane;fillColor=#f5f5f5;strokeColor=#666666;fontColor=#333333;" vertex="1" parent="WIyWlLk6GJQsqaUBKTNV-1">
          <mxGeometry x="520" y="-180" width="210" height="95" as="geometry" />
        </mxCell>
        <mxCell id="CvALPrKDwg2GNkAODaw3-72" value="pings checkIngredients when&lt;br&gt;app detects its near a supermarket" style="text;html=1;align=center;verticalAlign=middle;resizable=0;points=[];autosize=1;strokeColor=none;" vertex="1" parent="CvALPrKDwg2GNkAODaw3-70">
          <mxGeometry x="5" y="25" width="200" height="30" as="geometry" />
        </mxCell>
        <mxCell id="CvALPrKDwg2GNkAODaw3-74" value="reminder notification to&lt;br&gt;buy items low/out" style="text;html=1;align=center;verticalAlign=middle;resizable=0;points=[];autosize=1;strokeColor=none;" vertex="1" parent="CvALPrKDwg2GNkAODaw3-70">
          <mxGeometry x="35" y="59" width="140" height="30" as="geometry" />
        </mxCell>
        <mxCell id="CvALPrKDwg2GNkAODaw3-83" style="edgeStyle=orthogonalEdgeStyle;rounded=0;orthogonalLoop=1;jettySize=auto;html=1;exitX=0;exitY=0.25;exitDx=0;exitDy=0;entryX=1;entryY=0.5;entryDx=0;entryDy=0;" edge="1" parent="WIyWlLk6GJQsqaUBKTNV-1" source="CvALPrKDwg2GNkAODaw3-78" target="CvALPrKDwg2GNkAODaw3-70">
          <mxGeometry relative="1" as="geometry">
            <Array as="points">
              <mxPoint x="840" y="-132" />
              <mxPoint x="785" y="-132" />
            </Array>
          </mxGeometry>
        </mxCell>
        <mxCell id="CvALPrKDwg2GNkAODaw3-85" style="edgeStyle=orthogonalEdgeStyle;rounded=0;orthogonalLoop=1;jettySize=auto;html=1;exitX=0.25;exitY=0;exitDx=0;exitDy=0;entryX=0.002;entryY=0.095;entryDx=0;entryDy=0;entryPerimeter=0;" edge="1" parent="WIyWlLk6GJQsqaUBKTNV-1" source="CvALPrKDwg2GNkAODaw3-78" target="CvALPrKDwg2GNkAODaw3-2">
          <mxGeometry relative="1" as="geometry">
            <mxPoint x="450" y="-220" as="targetPoint" />
            <Array as="points">
              <mxPoint x="893" y="-190" />
              <mxPoint x="330" y="-190" />
              <mxPoint x="330" y="129" />
            </Array>
          </mxGeometry>
        </mxCell>
        <mxCell id="CvALPrKDwg2GNkAODaw3-78" value="ShoppingList" style="swimlane;fillColor=#e1d5e7;strokeColor=#9673a6;" vertex="1" parent="WIyWlLk6GJQsqaUBKTNV-1">
          <mxGeometry x="840" y="-160" width="210" height="130" as="geometry" />
        </mxCell>
        <mxCell id="CvALPrKDwg2GNkAODaw3-79" value="pings supermarket APIs?&lt;br&gt;- stock availability&lt;br&gt;- best price" style="text;html=1;align=center;verticalAlign=middle;resizable=0;points=[];autosize=1;strokeColor=none;" vertex="1" parent="CvALPrKDwg2GNkAODaw3-78">
          <mxGeometry x="30" y="50" width="150" height="50" as="geometry" />
        </mxCell>
        <mxCell id="CvALPrKDwg2GNkAODaw3-80" value="tracks &lt;b&gt;OUT&lt;/b&gt;&amp;nbsp;and &lt;b&gt;LOW&lt;/b&gt;&amp;nbsp;ingredients" style="text;html=1;align=center;verticalAlign=middle;resizable=0;points=[];autosize=1;strokeColor=none;" vertex="1" parent="CvALPrKDwg2GNkAODaw3-78">
          <mxGeometry x="10" y="30" width="190" height="20" as="geometry" />
        </mxCell>
      </root>
    </mxGraphModel>
  </diagram>
</mxfile>
